# 3ds Max Wavefront OBJ Exporter v0.99 - (c)2007 guruware
# 创建的文件:12.12.2023 00:26:14

mtllib teacher-desk.mtl

#
# object Box005
#

v  28.1146 -0.0000 50.4511
v  28.1146 -0.0000 41.3724
v  28.1146 1.5904 41.3724
v  28.1146 1.5904 50.4511
v  23.7407 -0.0000 50.4511
v  23.7407 -0.0000 41.3724
v  22.5833 0.8845 41.3724
v  22.5833 1.5904 41.3724
v  22.5833 1.5904 50.4511
v  22.5833 0.8845 50.4511
v  6.6373 0.8845 41.3724
v  6.6373 1.5904 41.3724
v  6.6373 0.8845 50.4511
v  6.6373 1.5904 50.4511
v  -28.1146 -0.0000 50.4511
v  -28.1146 1.5904 50.4511
v  -28.1146 1.5904 41.3724
v  -28.1146 -0.0000 41.3724
v  -23.7407 -0.0000 50.4511
v  -23.7407 -0.0000 41.3724
v  -22.5833 1.5904 41.3724
v  -22.5833 0.8845 41.3724
v  -22.5833 1.5904 50.4511
v  -22.5833 0.8845 50.4511
v  -6.6373 1.5904 41.3724
v  -6.6373 0.8845 41.3724
v  -6.6373 0.8845 50.4511
v  -6.6373 1.5904 50.4511
v  5.1591 78.8532 49.4401
v  5.1591 78.8532 42.3833
v  -5.1591 78.8532 42.3833
v  -5.1591 78.8532 49.4401
v  6.6373 47.0679 41.3724
v  6.6373 47.0679 50.4511
v  -6.6373 47.0679 41.3724
v  -6.6373 47.0679 50.4511
v  5.8649 47.6294 41.9007
v  5.8649 47.6294 49.9228
v  -5.8649 47.6294 41.9007
v  -5.8649 47.6294 49.9228
v  5.8649 64.4407 41.9007
v  5.8649 64.4407 49.9228
v  -5.8649 64.4407 41.9007
v  -5.8649 64.4407 49.9228
v  5.1591 64.4407 42.3833
v  5.1591 64.4407 49.4401
v  -5.1591 64.4407 42.3833
v  -5.1591 64.4407 49.4401
# 48 vertices

vn 0.5774 -0.5774 0.5774
vn 0.5774 -0.5774 -0.5774
vn 0.5774 0.5774 -0.5774
vn 0.5774 0.5774 0.5774
vn -0.2459 -0.7266 0.6416
vn -0.2459 -0.7266 -0.6416
vn -0.1978 -0.5846 -0.7868
vn 0.0000 0.7071 -0.7071
vn 0.0000 0.7071 0.7071
vn -0.1978 -0.5846 0.7868
vn 0.0000 -0.7071 -0.7071
vn 0.3015 0.3015 -0.9045
vn 0.0000 -0.7071 0.7071
vn 0.3015 0.3015 0.9045
vn -0.5774 -0.5774 0.5774
vn -0.5774 0.5774 0.5774
vn -0.5774 0.5774 -0.5774
vn -0.5774 -0.5774 -0.5774
vn 0.2459 -0.7266 0.6416
vn 0.2459 -0.7266 -0.6416
vn 0.1978 -0.5846 -0.7868
vn 0.1978 -0.5846 0.7868
vn -0.3015 0.3015 -0.9045
vn -0.3015 0.3015 0.9045
vn 0.6515 0.4149 -0.6351
vn 0.6515 0.4149 0.6351
vn -0.6515 0.4149 -0.6351
vn -0.6515 0.4149 0.6351
vn 0.5143 0.6071 -0.6057
vn 0.5143 0.6071 0.6057
vn -0.5143 0.6071 -0.6057
vn -0.5143 0.6071 0.6057
vn 0.3015 0.9045 -0.3015
vn 0.3015 0.9045 0.3015
vn -0.3015 0.9045 -0.3015
vn -0.3015 0.9045 0.3015
# 36 vertex normals

vt 0.0000 0.0000 0.0000
vt 1.0000 0.0000 0.0000
vt 1.0000 1.0000 0.0000
vt 0.0000 1.0000 0.0000
vt 1.0000 0.4128 0.0000
vt 0.0000 0.4128 0.0000
vt 0.2500 0.4128 0.0000
vt 0.2500 1.0000 0.0000
vt 0.2500 0.0000 0.0000
vt 0.7500 0.0000 0.0000
vt 0.7500 1.0000 0.0000
vt 0.7500 0.4128 0.0000
# 12 texture coords

o Box005
g Box005
usemtl wire_255255255
s 16
f 1/1/1 2/2/2 3/3/3 4/4/4 
s off
f 5/1/5 6/2/6 2/2/2 1/1/1 
f 6/2/6 7/5/7 8/3/8 3/3/3 2/2/2 
f 8/3/8 9/4/9 4/4/4 3/3/3 
f 9/4/9 10/6/10 5/1/5 1/1/1 4/4/4 
f 6/4/6 5/1/5 10/1/10 7/4/7 
s 32
f 7/6/7 11/7/11 12/8/12 8/4/8 
s 2
f 11/8/11 7/4/7 10/1/10 13/9/13 
s 4
f 14/10/14 9/2/9 8/3/8 12/11/12 
s 8
f 13/12/13 10/5/10 9/3/9 14/11/14 
s 16
f 15/1/15 16/4/16 17/3/17 18/2/18 
s off
f 19/1/19 15/1/15 18/2/18 20/2/20 
f 20/2/20 18/2/18 17/3/17 21/3/8 22/5/21 
f 21/3/8 17/3/17 16/4/16 23/4/9 
f 23/4/9 16/4/16 15/1/15 19/1/19 24/6/22 
f 20/4/20 22/4/21 24/1/22 19/1/19 
s 32
f 22/6/21 21/4/8 25/8/23 26/7/11 
s 2
f 26/8/11 27/9/13 24/1/22 22/4/21 
s 4
f 28/10/24 25/11/23 21/3/8 23/2/9 
s 8
f 27/12/13 28/11/24 23/3/9 24/5/22 
s 1
f 13/12/13 14/11/14 28/11/24 27/12/13 
s 16
f 29/10/4 30/11/3 31/11/17 32/10/16 
s 1
f 12/8/12 11/7/11 26/7/11 25/8/23 
s 16
f 11/8/11 13/9/13 27/9/13 26/8/11 
s off
f 14/10/14 12/11/12 33/11/25 34/10/26 
f 12/11/12 25/11/23 35/11/27 33/11/25 
f 25/11/23 28/10/24 36/10/28 35/11/27 
f 28/10/24 14/10/14 34/10/26 36/10/28 
f 34/10/26 33/11/25 37/11/29 38/10/30 
f 33/11/25 35/11/27 39/11/31 37/11/29 
f 35/11/27 36/10/28 40/10/32 39/11/31 
f 36/10/28 34/10/26 38/10/30 40/10/32 
f 38/10/30 37/11/29 41/11/3 42/10/4 
f 37/11/29 39/11/31 43/11/17 41/11/3 
f 39/11/31 40/10/32 44/10/16 43/11/17 
f 40/10/32 38/10/30 42/10/4 44/10/16 
f 42/10/4 41/11/3 45/11/33 46/10/34 
f 41/11/3 43/11/17 47/11/35 45/11/33 
f 43/11/17 44/10/16 48/10/36 47/11/35 
f 44/10/16 42/10/4 46/10/34 48/10/36 
f 46/10/34 45/11/33 30/11/3 29/10/4 
f 45/11/33 47/11/35 31/11/17 30/11/3 
f 47/11/35 48/10/36 32/10/16 31/11/17 
f 48/10/36 46/10/34 29/10/4 32/10/16 
# 44 polygons

#
# object Box007
#

v  -9.3227 78.7827 37.5820
v  8.6406 78.7827 37.5820
v  8.6406 78.7827 49.4401
v  -9.3227 78.7827 49.4401
v  -9.3227 81.4438 53.0572
v  8.6406 81.4438 53.0572
v  8.6406 81.4438 49.4401
v  -9.3227 81.4438 49.4401
v  -9.3227 75.1874 53.0572
v  8.6406 75.1874 53.0572
v  27.0211 78.7825 53.0572
v  27.0211 78.7825 49.4401
v  27.0211 81.4438 49.4401
v  27.0211 81.4438 53.0572
v  -21.7510 78.7825 37.5820
v  -21.7510 78.7825 49.4401
v  -21.7510 81.4438 49.4401
v  -21.7510 81.4438 37.5820
v  -21.7510 78.7825 53.0572
v  -9.3227 75.1874 49.4401
v  -9.3227 81.4438 37.5820
v  -21.7510 81.4438 53.0572
v  8.6406 81.4438 37.5820
v  27.0211 81.4438 37.5820
v  27.0211 78.7825 37.5820
v  8.6406 75.1874 49.4401
# 26 vertices

vn 0.0000 -0.7071 -0.7071
vn -0.0000 -0.7071 -0.7071
vn 0.0000 0.7071 0.7071
vn 0.0000 1.0000 -0.0000
vn -0.1033 -0.7288 0.6768
vn 0.0702 -0.7242 0.6860
vn 0.6243 -0.5140 0.5882
vn 0.7412 -0.6700 -0.0416
vn 0.7071 0.7071 -0.0000
vn 0.5774 0.5774 0.5774
vn -0.5773 -0.5774 -0.5774
vn -0.7566 -0.6512 -0.0595
vn -0.7071 0.7071 -0.0000
vn -0.5774 0.5774 -0.5774
vn -0.6433 -0.4836 0.5936
vn -0.1033 -0.7288 -0.6768
vn 0.0000 0.7071 -0.7071
vn -0.5774 0.5774 0.5774
vn 0.5774 0.5774 -0.5774
vn 0.5773 -0.5774 -0.5774
vn 0.0702 -0.7242 -0.6860
# 21 vertex normals

vt 0.6667 1.0000 0.0000
vt 0.3333 1.0000 0.0000
vt 0.3333 0.5000 0.0000
vt 0.6667 0.5000 0.0000
vt 0.3333 0.0000 0.0000
vt 0.6667 0.0000 0.0000
vt 0.0000 0.0000 0.0000
vt 0.5000 0.0000 0.0000
vt 0.5000 1.0000 0.0000
vt 0.0000 1.0000 0.0000
vt 1.0000 0.0000 0.0000
vt 1.0000 0.5000 0.0000
vt 0.0000 0.5000 0.0000
vt 1.0000 1.0000 0.0000
vt 0.3333 0.7055 0.0000
vt 0.6667 0.7055 0.0000
# 16 texture coords

o Box007
g Box007
usemtl wire_255255255
s 2
f 49/13/37 50/14/38 51/15/38 52/16/37 
s 4
f 53/17/39 54/18/39 55/16/40 56/15/40 
s 8
f 57/17/41 58/18/42 54/13/39 53/14/39 
s 16
f 59/19/43 60/20/44 61/21/45 62/22/46 
s 64
f 63/19/47 64/20/48 65/21/49 66/22/50 
s 2
f 57/18/41 67/23/51 64/24/48 68/16/52 
s 4
f 54/18/39 62/23/46 61/24/45 55/16/40 
f 69/14/53 66/22/50 65/25/49 56/15/40 
s 8
f 58/18/42 59/23/43 62/26/46 54/13/39 
f 53/14/39 70/22/54 67/19/51 57/17/41 
s 32
f 71/14/53 72/22/55 73/19/56 50/27/38 
s 2
f 74/15/57 58/17/42 57/18/41 68/16/52 
s 4
f 55/16/40 71/13/53 69/14/53 56/15/40 
s 16
f 60/20/44 73/23/56 72/26/55 61/21/45 
s 64
f 64/20/48 67/23/51 70/26/54 65/21/49 
s 2
f 60/25/44 59/19/43 58/17/42 74/15/57 
s 4
f 61/24/45 72/26/55 71/13/53 55/16/40 
f 65/25/49 70/19/54 53/17/39 56/15/40 
s off
f 74/15/57 68/16/52 52/16/37 51/15/38 
s 32
f 50/27/38 49/28/37 69/13/53 71/14/53 
f 63/23/47 66/26/50 69/13/53 49/28/37 
s 1
f 51/17/38 50/18/38 73/19/56 60/23/44 
s off
f 74/15/57 51/15/38 60/23/44 
s 1
f 49/18/37 52/18/37 64/19/48 63/19/47 
s off
f 64/24/48 52/18/37 68/16/52 
# 23 polygons - 2 triangles

#
# object Box009
#

v  -9.3227 78.7827 -37.5820
v  8.6407 78.7827 -37.5820
v  8.6407 78.7827 -49.4401
v  -9.3227 78.7827 -49.4401
v  -9.3227 81.4438 -53.0572
v  8.6407 81.4438 -53.0572
v  8.6407 81.4438 -49.4401
v  -9.3227 81.4438 -49.4401
v  -9.3227 75.1874 -53.0572
v  8.6407 75.1874 -53.0572
v  27.0212 78.7825 -53.0572
v  27.0212 78.7825 -49.4401
v  27.0212 81.4438 -49.4401
v  27.0212 81.4438 -53.0572
v  -21.7510 78.7825 -37.5820
v  -21.7510 78.7825 -49.4401
v  -21.7510 81.4438 -49.4401
v  -21.7510 81.4438 -37.5820
v  -21.7510 78.7825 -53.0572
v  -9.3227 75.1874 -49.4401
v  -9.3227 81.4438 -37.5820
v  -21.7510 81.4438 -53.0572
v  8.6407 81.4438 -37.5820
v  27.0212 81.4438 -37.5820
v  27.0212 78.7825 -37.5820
v  8.6407 75.1874 -49.4401
# 26 vertices

vn 0.0000 -0.7071 0.7071
vn -0.0000 -0.7071 0.7071
vn 0.0000 0.7071 -0.7071
vn -0.0000 1.0000 0.0000
vn -0.1033 -0.7288 -0.6768
vn 0.0702 -0.7242 -0.6860
vn 0.6243 -0.5140 -0.5882
vn 0.7412 -0.6700 0.0416
vn 0.7071 0.7071 0.0000
vn 0.5774 0.5774 -0.5773
vn -0.5773 -0.5774 0.5774
vn -0.7566 -0.6512 0.0595
vn -0.7071 0.7071 -0.0000
vn -0.5774 0.5774 0.5774
vn -0.6433 -0.4836 -0.5936
vn -0.1033 -0.7288 0.6768
vn -0.0000 0.7071 0.7071
vn -0.5774 0.5774 -0.5774
vn 0.5774 0.5774 0.5774
vn 0.5773 -0.5774 0.5774
vn 0.0702 -0.7242 0.6860
# 21 vertex normals

vt 0.6667 1.0000 0.0000
vt 0.3333 1.0000 0.0000
vt 0.3333 0.5000 0.0000
vt 0.6667 0.5000 0.0000
vt 0.3333 0.0000 0.0000
vt 0.6667 0.0000 0.0000
vt 0.0000 0.0000 0.0000
vt 0.5000 0.0000 0.0000
vt 0.5000 1.0000 0.0000
vt 0.0000 1.0000 0.0000
vt 1.0000 0.0000 0.0000
vt 1.0000 0.5000 0.0000
vt 0.0000 0.5000 0.0000
vt 1.0000 1.0000 0.0000
vt 0.3333 0.7055 0.0000
vt 0.6667 0.7055 0.0000
# 16 texture coords

o Box009
g Box009
usemtl wire_255255255
s 2
f 78/32/58 77/31/59 76/30/59 75/29/58 
s 4
f 82/31/61 81/32/61 80/34/60 79/33/60 
s 8
f 79/30/60 80/29/60 84/34/63 83/33/62 
s 16
f 88/38/67 87/37/66 86/36/65 85/35/64 
s 64
f 92/38/71 91/37/70 90/36/69 89/35/68 
s 2
f 94/32/73 90/40/69 93/39/72 83/34/62 
s 4
f 81/32/61 87/40/66 88/39/67 80/34/60 
f 82/31/61 91/41/70 92/38/71 95/30/74 
s 8
f 80/29/60 88/42/67 85/39/64 84/34/63 
f 83/33/62 93/35/72 96/38/75 79/30/60 
s 32
f 76/43/59 99/35/77 98/38/76 97/30/74 
s 2
f 94/32/73 83/34/62 84/33/63 100/31/78 
s 4
f 82/31/61 95/30/74 97/29/74 81/32/61 
s 16
f 87/37/66 98/42/76 99/39/77 86/36/65 
s 64
f 91/37/70 96/42/75 93/39/72 90/36/69 
s 2
f 100/31/78 84/33/63 85/35/64 86/41/65 
s 4
f 81/32/61 97/29/74 98/42/76 87/40/66 
f 82/31/61 79/33/60 96/35/75 91/41/70 
s off
f 77/31/59 78/32/58 94/32/73 100/31/78 
s 32
f 97/30/74 95/29/74 75/44/58 76/43/59 
f 75/44/58 95/29/74 92/42/71 89/39/68 
s 1
f 86/39/65 99/35/77 76/34/59 77/33/59 
s off
f 86/39/65 77/31/59 100/31/78 
s 1
f 89/35/68 90/35/69 78/34/58 75/34/58 
s off
f 94/32/73 78/34/58 90/40/69 
# 23 polygons - 2 triangles

#
# object Box010
#

v  28.1146 0.0000 -50.4511
v  28.1146 0.0000 -41.3724
v  28.1146 1.5904 -41.3724
v  28.1146 1.5904 -50.4511
v  23.7407 0.0000 -50.4511
v  23.7407 0.0000 -41.3724
v  22.5833 0.8845 -41.3724
v  22.5833 1.5904 -41.3724
v  22.5833 1.5904 -50.4511
v  22.5833 0.8845 -50.4511
v  6.6374 0.8845 -41.3724
v  6.6374 1.5904 -41.3724
v  6.6374 0.8845 -50.4511
v  6.6374 1.5904 -50.4511
v  -28.1146 0.0000 -50.4511
v  -28.1146 1.5904 -50.4511
v  -28.1146 1.5904 -41.3724
v  -28.1146 0.0000 -41.3724
v  -23.7407 0.0000 -50.4511
v  -23.7407 0.0000 -41.3724
v  -22.5833 1.5904 -41.3724
v  -22.5833 0.8845 -41.3724
v  -22.5833 1.5904 -50.4511
v  -22.5833 0.8845 -50.4511
v  -6.6373 1.5904 -41.3724
v  -6.6373 0.8845 -41.3724
v  -6.6373 0.8845 -50.4511
v  -6.6373 1.5904 -50.4511
v  5.1591 78.8533 -49.4401
v  5.1591 78.8533 -42.3833
v  -5.1591 78.8533 -42.3833
v  -5.1591 78.8533 -49.4401
v  6.6374 47.0679 -41.3724
v  6.6374 47.0679 -50.4511
v  -6.6373 47.0679 -41.3724
v  -6.6373 47.0679 -50.4511
v  5.8649 47.6294 -41.9007
v  5.8649 47.6294 -49.9228
v  -5.8649 47.6294 -41.9007
v  -5.8648 47.6294 -49.9228
v  5.8649 64.4407 -41.9007
v  5.8649 64.4407 -49.9228
v  -5.8649 64.4407 -41.9007
v  -5.8648 64.4407 -49.9228
v  5.1591 64.4407 -42.3833
v  5.1591 64.4407 -49.4401
v  -5.1591 64.4407 -42.3833
v  -5.1591 64.4407 -49.4401
# 48 vertices

vn 0.5774 -0.5774 -0.5774
vn 0.5774 -0.5774 0.5774
vn 0.5774 0.5774 0.5774
vn 0.5774 0.5774 -0.5773
vn -0.2459 -0.7266 -0.6416
vn -0.2459 -0.7266 0.6416
vn -0.1978 -0.5846 0.7868
vn -0.0000 0.7071 0.7071
vn 0.0000 0.7071 -0.7071
vn -0.1978 -0.5846 -0.7868
vn -0.0000 -0.7071 0.7071
vn 0.3015 0.3015 0.9045
vn 0.0000 -0.7071 -0.7071
vn 0.3015 0.3015 -0.9045
vn -0.5774 -0.5774 -0.5774
vn -0.5774 0.5774 -0.5774
vn -0.5774 0.5774 0.5774
vn -0.5774 -0.5774 0.5773
vn 0.2459 -0.7266 -0.6416
vn 0.2459 -0.7266 0.6416
vn 0.1978 -0.5846 0.7868
vn 0.1978 -0.5846 -0.7868
vn -0.3015 0.3015 0.9045
vn -0.3015 0.3015 -0.9045
vn 0.5774 0.5774 -0.5774
vn 0.6515 0.4149 0.6351
vn 0.6515 0.4149 -0.6351
vn -0.6515 0.4149 0.6351
vn -0.6515 0.4149 -0.6351
vn 0.5143 0.6071 0.6057
vn 0.5143 0.6071 -0.6057
vn -0.5143 0.6071 0.6057
vn -0.5143 0.6071 -0.6057
vn 0.3015 0.9045 0.3015
vn 0.3015 0.9045 -0.3015
vn -0.3015 0.9045 0.3015
vn -0.3015 0.9045 -0.3015
# 37 vertex normals

vt 0.0000 0.0000 0.0000
vt 1.0000 0.0000 0.0000
vt 1.0000 1.0000 0.0000
vt 0.0000 1.0000 0.0000
vt 1.0000 0.4128 0.0000
vt 0.0000 0.4128 0.0000
vt 0.2500 0.4128 0.0000
vt 0.2500 1.0000 0.0000
vt 0.2500 0.0000 0.0000
vt 0.7500 0.0000 0.0000
vt 0.7500 1.0000 0.0000
vt 0.7500 0.4128 0.0000
# 12 texture coords

o Box010
g Box010
usemtl wire_255255255
s 16
f 104/48/82 103/47/81 102/46/80 101/45/79 
s off
f 101/45/79 102/46/80 106/46/84 105/45/83 
f 102/46/80 103/47/81 108/47/86 107/49/85 106/46/84 
f 103/47/81 104/48/82 109/48/87 108/47/86 
f 104/48/82 101/45/79 105/45/83 110/50/88 109/48/87 
f 107/48/85 110/45/88 105/45/83 106/48/84 
s 32
f 108/48/86 112/52/90 111/51/89 107/50/85 
s 2
f 113/53/91 110/45/88 107/48/85 111/52/89 
s 4
f 112/55/90 108/47/86 109/46/87 114/54/92 
s 8
f 114/55/92 109/47/87 110/49/88 113/56/91 
s 16
f 118/46/96 117/47/95 116/48/94 115/45/93 
s off
f 120/46/98 118/46/96 115/45/93 119/45/97 
f 122/49/99 121/47/86 117/47/95 118/46/96 120/46/98 
f 123/48/87 116/48/94 117/47/95 121/47/86 
f 124/50/100 119/45/97 115/45/93 116/48/94 123/48/87 
f 119/45/97 124/45/100 122/48/99 120/48/98 
s 32
f 126/51/89 125/52/101 121/48/86 122/50/99 
s 2
f 122/48/99 124/45/100 127/53/91 126/52/89 
s 4
f 123/46/87 121/47/86 125/55/101 128/54/102 
s 8
f 124/49/100 123/47/87 128/55/102 127/56/91 
s 1
f 127/56/91 128/55/102 114/55/92 113/56/91 
s 16
f 132/54/94 131/55/95 130/55/81 129/54/103 
s 1
f 125/52/101 126/51/89 111/51/89 112/52/90 
s 16
f 126/52/89 127/53/91 113/53/91 111/52/89 
s off
f 134/54/105 133/55/104 112/55/90 114/54/92 
f 133/55/104 135/55/106 125/55/101 112/55/90 
f 135/55/106 136/54/107 128/54/102 125/55/101 
f 136/54/107 134/54/105 114/54/92 128/54/102 
f 138/54/109 137/55/108 133/55/104 134/54/105 
f 137/55/108 139/55/110 135/55/106 133/55/104 
f 139/55/110 140/54/111 136/54/107 135/55/106 
f 140/54/111 138/54/109 134/54/105 136/54/107 
f 142/54/82 141/55/81 137/55/108 138/54/109 
f 141/55/81 143/55/95 139/55/110 137/55/108 
f 143/55/95 144/54/94 140/54/111 139/55/110 
f 144/54/94 142/54/82 138/54/109 140/54/111 
f 146/54/113 145/55/112 141/55/81 142/54/82 
f 145/55/112 147/55/114 143/55/95 141/55/81 
f 147/55/114 148/54/115 144/54/94 143/55/95 
f 148/54/115 146/54/113 142/54/82 144/54/94 
f 129/54/103 130/55/81 145/55/112 146/54/113 
f 130/55/81 131/55/95 147/55/114 145/55/112 
f 131/55/95 132/54/94 148/54/115 147/55/114 
f 132/54/94 129/54/103 146/54/113 148/54/115 
# 44 polygons

#
# object Plane002
#

v  42.8879 84.1691 -54.5049
v  -31.4688 84.1691 -54.5049
v  -31.4688 81.4438 -54.5049
v  42.8879 81.4438 -54.5049
v  42.8879 84.1692 54.5048
v  42.8879 81.4439 54.5048
v  -31.4687 81.4439 54.5048
v  -31.4687 84.1692 54.5048
# 8 vertices

vn 0.5773 0.5773 -0.5774
vn -0.5773 0.5773 -0.5774
vn -0.5774 -0.5774 -0.5773
vn 0.5774 -0.5774 -0.5773
vn 0.5774 0.5774 0.5773
vn 0.5773 -0.5773 0.5774
vn -0.5773 -0.5773 0.5774
vn -0.5774 0.5774 0.5773
# 8 vertex normals

vt 0.7500 0.5000 0.0000
vt 0.5000 0.5000 0.0000
# 2 texture coords

o Plane002
g Plane002
usemtl wire_153228184
s 4
f 152/57/119 151/58/118 150/58/117 149/57/116 
f 156/58/123 155/58/122 154/57/121 153/57/120 
s 1
f 155/58/122 156/58/123 150/58/117 151/58/118 
s 2
f 156/58/123 153/57/120 149/57/116 150/58/117 
s 1
f 153/57/120 154/57/121 152/57/119 149/57/116 
s 2
f 154/57/121 155/58/122 151/58/118 152/57/119 
# 6 polygons

#
# object 前台板子
#

v  -32.6697 101.7880 57.0630
v  -32.6697 101.7880 15.7594
v  -32.6697 32.4445 15.7594
v  -32.6697 32.4445 57.0630
v  -31.4688 101.7880 57.0630
v  -31.4688 32.4445 57.0630
v  -31.4688 32.4445 15.7594
v  -31.4688 101.7880 15.7594
v  -32.6697 101.7880 -57.0630
v  -32.6697 32.4445 -57.0630
v  -32.6697 32.4445 -15.7594
v  -32.6697 101.7880 -15.7594
v  -31.4688 101.7880 -57.0630
v  -31.4688 101.7880 -15.7594
v  -31.4688 32.4445 -15.7594
v  -31.4688 32.4445 -57.0630
# 16 vertices

vn -0.5774 0.5773 0.5773
vn -0.4472 0.8944 -0.0000
vn -0.4472 -0.8944 -0.0000
vn -0.5774 -0.5774 0.5774
vn 0.5773 0.5774 0.5774
vn 0.5774 -0.5774 0.5774
vn 0.7071 -0.7071 -0.0000
vn 0.7071 0.7071 0.0000
vn -0.5774 0.5773 -0.5773
vn -0.5774 -0.5774 -0.5774
vn 0.5773 0.5774 -0.5774
vn 0.5774 -0.5774 -0.5774
# 12 vertex normals

vt 1.0000 0.0000 0.0000
vt 1.0000 1.0000 0.0000
vt 0.0000 1.0000 0.0000
vt 0.0000 0.0000 0.0000
# 4 texture coords

o 前台板子
g 前台板子
usemtl wire_255255255
s 2
f 157/59/124 158/60/125 159/61/126 160/62/127 
s 4
f 161/62/128 162/59/129 163/60/130 164/61/131 
s 8
f 157/62/124 160/59/127 162/60/129 161/61/128 
s 16
f 160/62/127 159/59/126 163/60/130 162/61/129 
s 64
f 158/62/125 157/59/124 161/60/128 164/61/131 
s 2
f 165/59/132 166/62/133 167/61/126 168/60/125 
s 4
f 169/62/134 170/61/131 171/60/130 172/59/135 
s 8
f 165/62/132 169/61/134 172/60/135 166/59/133 
s 16
f 166/62/133 172/61/135 171/60/130 167/59/126 
s 64
f 168/62/125 170/61/131 169/60/134 165/59/132 
s 1
f 158/62/125 164/61/131 170/61/131 168/62/125 
s 8
f 164/61/131 163/60/130 171/60/130 170/61/131 
s 1
f 163/60/130 159/59/126 167/59/126 171/60/130 
# 13 polygons

#
# object 同济
#

v  -32.6697 32.4445 15.7594
v  -32.6697 101.7880 15.7594
v  -32.6697 101.7880 -15.7594
v  -32.6697 32.4445 -15.7594
# 4 vertices

vn -1.0000 -0.0000 0.0000
vn -1.0000 -0.0000 -0.0000
# 2 vertex normals

vt 0.2452 -0.1835 0.0000
vt 0.2444 0.9394 0.0000
vt 0.7548 0.9398 0.0000
vt 0.7556 -0.1831 0.0000
# 4 texture coords

o 同济
g 同济
usemtl Material__145
s 8
f 173/63/136 174/64/137 175/65/137 176/66/136 
# 1 polygons

